<?xml version="1.0" encoding="utf-8"?>
<!-- Generator: Adobe Illustrator 24.1.2, SVG Export Plug-In . SVG Version: 6.00 Build 0)  -->
<svg version="1.1" id="Calque_1" xmlns="http://www.w3.org/2000/svg" xmlns:xlink="http://www.w3.org/1999/xlink" x="0px" y="0px"
	 viewBox="0 0 600 584" style="enable-background:new 0 0 600 584;" xml:space="preserve">
<style type="text/css">
	.st0{opacity:0.4;fill-rule:evenodd;clip-rule:evenodd;fill:#BDEDE3;}
</style>
<path class="st0" d="M240.83,72.74c-5.78,12.14-12.08,50.12-15.92,66.56c-2.71,11.62-18.96,38.67,31.14,35.5
	c7.87-9.15,18.03-43.94,19.98-58.96c1.71-13.16,11.16-46.3-2.9-46.34C271.12,69.49,242.52,72.28,240.83,72.74L240.83,72.74z"/>
<path class="st0" d="M418.64,207.56c5.61-18.2-38.12-51.79-51.1-60.17c-14.75-9.52-16.93-24.2-30.42-24.61
	c-16.9-1.08-25.83-3.37-36.97,12.79c-2.31,10.64,34.87,30.71,48.32,42.57C355.02,183.92,407.69,209.26,418.64,207.56L418.64,207.56z
	"/>
<path class="st0" d="M408.63,468.75c3.11-0.59,13.12-4.09,16.04-5.22c20.45-7.92,77.29-33.96,78.18-54.45
	c-26.89-27.22-75.08,14.72-94,20.34c-11.67,3.47-20.98-3.22-18.83,9.36C394.54,465.28,389.78,472.33,408.63,468.75L408.63,468.75z"
	/>
<path class="st0" d="M311.11,328.71c9-11.51,13.82-23.88,20.86-39.75c25.24-56.86,0.99-42.64-13.88-49.96
	c-22.09-10.87-13.66,2.59-26.63,39.67c-1.93,5.52-12.4,33.4-12.33,35.99c0.18,6.63,3.71,11.97,10.47,12.86
	C292.18,327.86,306.82,328.61,311.11,328.71L311.11,328.71z"/>
<path class="st0" d="M101.23,412.74l11.51,1.41c15.02-30.55,53.1-78.57,18.96-96.91c-15.28-8.21-23.9-10.89-25.57,9.24
	C101.69,380.07,101.93,375.2,101.23,412.74L101.23,412.74z"/>
<path class="st0" d="M147.98,552.68c8.58-9.56-15.92-16.51-28.21-56.57c-4.96-16.17-3.39-17.85-17.21-27.21
	c-8.77-5.94-19.54-12.23-33.68-9.5C65.57,508.82,134.51,567.69,147.98,552.68L147.98,552.68z"/>
<path class="st0" d="M241.06,526.98c6.25,8.22,24.09,17.18,34.93,7.67c1.98-1.73,21-27.23,23.42-30.87
	c7.67-11.51,30.27-36.55,29-46.94l-2.41-6.29c-0.24-0.48-0.59-1.07-0.85-1.54l-7.2-10.1C306.66,442.06,243.39,521.5,241.06,526.98
	L241.06,526.98z"/>
<path class="st0" d="M181.61,484.76c5.87,5.62,15.37,12.22,29.28,8.3c7.39-15.15,6.06-35.02,5.31-53.31
	c-0.99-24.4,3.99-38.03-14.98-45.95c-28.55-11.92-22.15,8.86-19.82,29.63C183.67,443.47,179.87,464.14,181.61,484.76L181.61,484.76z
	"/>
<path class="st0" d="M456.71,315.11c92.39,64.73,47.47,8.92,6.86-30.41C401.83,224.89,384.94,264.82,456.71,315.11L456.71,315.11z"
	/>
<path class="st0" d="M29.39,175.65c18.51,22.65,34.67,50.84,52.05,75.39c11.98,0.89,14.98-0.94,21.98-7.01
	C103.49,234.08,51.37,113.06,29.39,175.65L29.39,175.65z"/>
<path class="st0" d="M284.68,388c44.58,6.55,32.69,17.41,49.11,15.74l7.39-22.89C258.78,311.41,196.05,374.98,284.68,388L284.68,388
	z"/>
<path class="st0" d="M120.88,94.35c-1.86,7.85,1.41,27.22,1.27,38.95c-0.18,14.92-3.82,24.19-1.54,39.99
	c20.92,13.47,31.84-2.87,33.72-21.31c2.73-26.85,6.57-43.91-6.07-60.92l-18.94,1.61c-0.81,0.1-1.4,0.14-2.17,0.25L120.88,94.35
	L120.88,94.35z"/>
<path class="st0" d="M386.12,516.25c-4.4-3.24-9.15-8.17-16.33-8.9c-2.76-0.28-21.15,0.76-24.6,1.21
	c-4.79,16.76,9.31,4.41-1.18,38.53C328.56,597.31,389.36,604.56,386.12,516.25L386.12,516.25z"/>
<path class="st0" d="M478.02,182.46c15.9-1.37,12.51-30.2,9.01-43.82c-5.27-20.49-8.1-30.06-17.89-43.39
	C402.13,102.32,476.44,182.59,478.02,182.46L478.02,182.46z"/>
<path class="st0" d="M496.68,246.7c13.77,7.47,31.48,7.48,46.23,19.99c2.4,2.03,6.01,6.15,8.97,7.73
	c21.76,11.65,14.16-27.46-4.92-42.48C490.12,187.17,480.2,237.75,496.68,246.7L496.68,246.7z"/>
<path class="st0" d="M223.64,286.59c8.59-17.37-27.53-55.07-39.87-66.41c-8.15-7.5-16.32-7.41-22.96,0.9
	c-15.11,18.91-1.58,22.49,16.9,40.58C185.4,269.18,206.48,294.31,223.64,286.59L223.64,286.59z"/>
<path class="st0" d="M381.62,30.69c-5.27,7.18-5.73,24.75-10.08,35.88c-3.73,9.57-11.84,25.63-12.65,35.99
	c6.08,6.54,19.91,14.09,29.82,13.85c3.85-8.27,7.57-18.96,11.93-27.84C412.25,64.86,413.37,41.42,381.62,30.69L381.62,30.69z"/>
<path class="st0" d="M2,354.77c20.86,10.92,29.81-21.45,34.09-31.95c7.04-17.27,19.01-43.13,10.83-52.98
	c-5.68-6.85-19.81-3.43-24.33,1.99c-3.43,4.11-12.54,44.84-15.6,55.05C3.75,337.74-3.5,345.12,2,354.77L2,354.77z"/>
<path class="st0" d="M589.02,316.06c-4.22-6.15-5.86-7.23-16.31-5.65c-2.68,4.79-4.7,79.15-4.2,91.29c6.4,3.29,5.43,4.17,13.52,4.68
	C603.27,384.1,605.78,340.86,589.02,316.06L589.02,316.06z"/>
<path class="st0" d="M260.27,11.31c1.11,4.4,5.24,7.54,7.64,9.25c8.94,5.46,51.99,38.05,58.53,34.15
	C353.32,38.7,251.06-25.06,260.27,11.31L260.27,11.31z"/>
<path class="st0" d="M192.38,88.78l17.25-2.47c0.42-2.06-0.52-37.37-1.27-42.29c-1.19-7.86-20.6-20.26-25.48-20.67
	C162.19,21.62,188.81,82.08,192.38,88.78L192.38,88.78z"/>
<path class="st0" d="M490.89,500.41c1.71-9.58,8.16-11.06,16.21-14.26c5.28-4.48,11.39-12.71,11.64-22.85
	c-16.78-1.33-22.41,12.55-41.15,27.63c-9.33,7.51-30.5,26.3-34.31,36.06c9.25,11.72,15.34,2.71,26.86-3.62
	C479.07,518.47,489.01,509.93,490.89,500.41L490.89,500.41z"/>
</svg>
