<?xml version="1.0" encoding="utf-8"?>
<!-- Generator: Adobe Illustrator 24.1.2, SVG Export Plug-In . SVG Version: 6.00 Build 0)  -->
<svg version="1.1" id="Capa_1" xmlns="http://www.w3.org/2000/svg" xmlns:xlink="http://www.w3.org/1999/xlink" x="0px" y="0px"
	 viewBox="0 0 2000 2000" style="enable-background:new 0 0 2000 2000;" xml:space="preserve">
<style type="text/css">
	.st0{opacity:0.3;}
	.st1{fill:#FFFFFF;}
</style>
<g class="st0">
	<path class="st1" d="M699.18,679.48c-0.08,13.22,1.76,26.95,3.54,40.05c1.92,14.14,5.53,28.5,13.79,40.3
		c9.77,13.96,25.13,23.03,40.81,29.44c9.23,3.77,20.07,6.7,28.54,1.89c4.57-2.59,7.72-7.09,10.24-11.71
		c5.1-9.34,8.27-19.94,7.98-30.72c-0.06-2.37-0.3-4.64-0.69-6.82c-2.44-13.58-11.53-24.26-21.62-33.21
		c-11.93-10.57-24.46-20.45-37.5-29.59c-5.29-3.71-10.64-7.33-16.08-10.79c-4.7-2.99-9.88-6.97-15.34-8.26
		C701.06,657.27,699.23,670.87,699.18,679.48z"/>
	<path class="st1" d="M1318.45,191.86l87.28,60.13l22-40.09l-2.44-7.38c-7.83-23.69-29.54-40.27-54.61-41.6
		c-0.27-0.01-0.55-0.03-0.82-0.04C1335.02,161.24,1318.45,191.86,1318.45,191.86z"/>
	<path class="st1" d="M1707.77,1197.3c-2.77-3.8-8.51-6.8-12.41-9.31c-7.2-4.64-14.87-8.83-23.35-10.54
		c-5.89-1.19-11.96-1.05-17.91-1.93c-8.04,14.02-16.77,29.24-26.6,46.39c-1.61,2.85,4.2,6.29,5.73,7.86
		c4.58,4.69,10.89,13.8,18.19,13.86c1.76,0.01,3.5-0.46,5.18-1.02c7.22-2.41,13.79-6.75,20.06-11.08
		c11.55-7.98,22.59-17.2,30.46-29.06c0.79-1.19,1.47-2.64,1.18-4C1708.21,1198.07,1708.04,1197.68,1707.77,1197.3z"/>
	<path class="st1" d="M389.06,288.43c13.14-8.29,25.6-17.67,37.59-27.6c10.74-8.9,24.57-18.22,32.08-30.22
		c9.02-14.41-10.73-18.19-20.67-18.93c-18.4-1.35-37.59-1.01-55.24,5.73c-10.96,4.19-18.15,10.94-23.35,19.16
		c-7.9,12.47-11.25,28.31-16.35,43.66c-1.14,3.44-1.43,7.31-1.34,10.94C342.42,316.58,379.06,294.74,389.06,288.43z"/>
	<path class="st1" d="M1538.41,330.36c-0.65-0.31-1.42-0.62-2.06-0.29c-0.45,0.22-0.71,0.7-0.94,1.14
		c-6.36,12.02-12.72,24.04-19.09,36.07c-0.36,0.67-0.72,1.39-0.68,2.16c0.03,0.58,0.29,1.12,0.55,1.64
		c5.32,10.62,12.24,20.32,19.12,29.97c7.79,10.92,15.61,21.86,24.63,31.74c3.01,3.3,6.33,6.58,10.52,7.91
		c7.99,2.54,12.07-4.15,15.47-10.18c4.11-7.29,7.63-14.92,10.58-22.79c3.41-9.1,6.05-19.26,2.97-28.61
		c-1.76-5.33-5.21-9.84-9.22-13.77c-1.42-1.4-2.92-2.72-4.43-3.99c-8.23-6.88-17.35-12.52-26.31-18.35
		C1552.64,338.51,1545.8,333.88,1538.41,330.36z"/>
	<path class="st1" d="M1823.84,953.14c1.42-6.58-3.15-10.5-9.97-8.52c-17.42,5.07-62.44,45.97-63.96,59.53
		c6.05,7.83,10.94,14.31,16,20.65c3.2,4,41.6-5.96,46.41-22.61C1816.97,986.06,1820.29,969.55,1823.84,953.14z"/>
	<path class="st1" d="M14.75,630.99c-0.45-0.73-6.31-3.95-14.75-8.14v30.73C8.85,643.26,16.2,633.35,14.75,630.99z"/>
	<path class="st1" d="M38.93,941.15c5.94-3.77,13.38-19.68,12.81-21.22c-3.94-10.6-29.82-29.8-51.74-41.81v58.22
		c7.06,5.49,13.52,9.7,17.16,10.33C19.03,947,37.75,941.9,38.93,941.15z"/>
	<path class="st1" d="M1771.74,1747.93c-10.57-17.38-22.54-32.92-35.18-35.81c-8.19-1.87-11.19,8.55-11.48,18.15
		c-0.43,14.09,4.21,32.07,11.95,49.14c5.22,11.52,11.85,22.69,19.12,32.68c2.37,3.25,16.45,16.63,19.58,15.57
		c4.26-1.44,17.88-9.7,19.9-12.8c1.41-2.17-0.18-21.12-1.81-24.92C1787.62,1775.52,1779.93,1761.4,1771.74,1747.93z"/>
	<path class="st1" d="M1851.01,1156.3c3.08,6.4,6.06,12.88,9.96,18.78c0.35,0.52,0.78,1.09,1.4,1.14c0.43,0.03,0.85-0.2,1.23-0.43
		c10.27-6.11,20.54-12.21,30.81-18.32c0.57-0.34,1.17-0.71,1.5-1.3c0.24-0.45,0.3-0.96,0.34-1.47c0.91-10.26,0.2-20.54-0.51-30.78
		c-0.8-11.58-1.61-23.19-3.81-34.54c-0.73-3.79-1.7-7.71-4.22-10.56c-4.79-5.44-10.92-2.28-16.22,0.69
		c-6.41,3.59-12.55,7.7-18.36,12.24c-6.73,5.25-13.36,11.63-15.36,19.94c-1.14,4.74-0.63,9.63,0.55,14.34
		c0.42,1.67,0.93,3.32,1.48,4.94C1842.79,1139.74,1847.01,1147.99,1851.01,1156.3z"/>
	<path class="st1" d="M776.19,407.16c-1.35,1.49-1.95,4.19-1.96,6.32c-0.08,23.05-1.7,46.44,10.32,67.24
		c2.16,3.73,26.03,24.18,33.53,31.19c8.67,1.51,54.52-31.64,52.37-37.37c-9.47-25.3-47.11-68.27-49.09-68.59
		c-12.25-1.99-24.53-4.05-36.9-5.04C781.9,400.7,778.54,404.57,776.19,407.16z"/>
	<path class="st1" d="M1501.99,1091.04c-6.31,0.82-11.9,3.77-16.92,7.71c-6.48,5.09-11.35,12.97-8.45,28.23
		c1.88,9.89,9.17,19.19,14.98,24.49c8.54,7.79,17.53,10.85,24.86,9.36c4.95-1.01,9.17-4.06,12.45-8.57
		c1.07-1.47,3.88-13.27,2.11-17.95c-2.41-6.37-12.29-28.64-14.87-32.9C1514.34,1098.42,1503.65,1090.82,1501.99,1091.04z"/>
	<path class="st1" d="M1426.27,581.42c5.05-6.62,7.16-15.58,9.01-23.53c2.16-9.24,2.85-18.98,1.56-28.31
		c-0.71-5.16-2.7-9.62-7.13-11.1c-1-0.33-25.19,1.81-36.4,2.97c-2.47,6.38-7.03,17.53-7.03,17.53c-0.08,0.7,1.59,23.98,7.09,31.54
		C1398.76,577.91,1423.7,584.8,1426.27,581.42z"/>
	<path class="st1" d="M1590.54,1452.29c4.5-2.03,9.77-9.39,9.21-14.84c-30.35-36.91-111.59-95.69-114.01-95.33
		c-2.31,0.34-24.26,37.92-11.75,54.86c14.32,19.39,37.27,38.92,58.7,47.3C1547.28,1449.99,1586.04,1454.32,1590.54,1452.29z"/>
	<path class="st1" d="M1786.97,752.41c-2.63,3.46-4.01,7.65-4.78,11.95c-0.27,1.53-0.47,3.07-0.62,4.6
		c-0.81,8.31-0.44,16.65-0.27,24.97c0.13,6.4,0.15,12.83,1.12,19.13c0.09,0.56,0.23,1.19,0.71,1.46c0.34,0.19,0.75,0.15,1.14,0.11
		c10.43-1.14,20.86-2.28,31.29-3.41c0.58-0.06,1.2-0.14,1.67-0.5c0.36-0.27,0.59-0.68,0.81-1.07c4.46-8.06,7.64-16.75,10.8-25.4
		c3.57-9.78,7.16-19.6,9.53-29.73c0.79-3.38,1.44-6.95,0.47-10.24c-1.85-6.26-7.9-5.98-13.22-5.54c-6.43,0.53-12.83,1.59-19.13,3.12
		C1799.22,743.62,1791.59,746.34,1786.97,752.41z"/>
	<path class="st1" d="M1772.11,318.83c0.83-0.31,50.5-59.5,51.55-72.57c0.98-12.36-36.94-14.28-41.71-13.55
		c-13.07,2.01-24.42,11.41-31.43,22.91c-7.01,11.5-9.97,48.68-10.19,52.74C1740.31,308.37,1771.09,319.21,1772.11,318.83z"/>
	<path class="st1" d="M805.87,24.4c12.36,11.48,54.8,19.18,57.88,16.3c4.65-4.35,10.64-22.21,10.84-29.66
		C874.62,10,869.85,5.76,862.45,0h-62.19C802.66,12.86,805.08,23.67,805.87,24.4z"/>
	<path class="st1" d="M1862.91,1456.96c-0.8-0.73-53.23,47.38-52.77,49.61c1.41,6.86,78.48,39.36,82.09,39.61
		c2.41,0.16,26.93-2.2,26.74-2.99c-1.35-5.69-15.76-48.89-20.67-53.77C1887.24,1478.43,1875.27,1468.2,1862.91,1456.96z"/>
	<path class="st1" d="M1550.72,1664.84c-12.18,7.05-52.36,32.96-55.35,40.78c-3.94,10.3,80.94,26.27,88.38,18.31
		c11.46-12.26,23.77-26.7,29.21-42.8c3.09-9.17,3.04-18.16-3.52-25.36C1596.73,1641.88,1562.75,1657.88,1550.72,1664.84z"/>
	<path class="st1" d="M1145.51,598.8c4.67,3.45,41.01-3.15,41.38-7.23c1.6-18.02-8.35-54.92-9.43-55.7
		c-6.64-4.78-13.27-9.61-20.27-13.82c-1.45-0.88-4.52,0.48-6.64,1.35c-1.21,0.5-2.33,1.96-2.94,3.24
		c-6.58,13.88-14.16,27.51-12.98,43.55C1134.85,573.09,1143.09,592.39,1145.51,598.8z"/>
	<path class="st1" d="M1317.74,1086.48c-11.6-7.77-29.64,1.57-43.25,0.7c-8.02-0.51-50.6-6.14-51.41-5.66
		c-0.99,0.6-12.29,33.46-12.29,33.46c1.66,4.96,36.53,24.61,50.77,26.36s29.59-1.52,39.91-11.09
		C1305.23,1126.76,1328.71,1093.83,1317.74,1086.48z"/>
	<path class="st1" d="M1045.64,749.89c1.13-0.28,5.39-9.28,5.24-9.68c-3.9-10.18-50-38.49-63.5-37.56
		c-1.26,0.09-9.69,9.87-10.26,14.97c-0.12,1.01,3.01,14.87,3.6,16.17c4.78,10.51,38.15,19.46,43.97,20.42
		C1026.22,754.46,1040.49,751.18,1045.64,749.89z"/>
	<path class="st1" d="M1246.14,1767.04c0.33-0.11,0.51-0.41,0.66-0.7c4.15-7.83,8.3-15.66,12.45-23.49c0.23-0.44,0.47-0.9,0.38-1.46
		c-0.07-0.42-0.31-0.84-0.55-1.24c-4.93-8.21-11.06-15.96-17.15-23.67c-6.9-8.72-13.82-17.46-21.61-25.58
		c-2.6-2.71-5.44-5.45-8.83-6.9c-6.46-2.76-9.2,1.53-11.44,5.44c-2.71,4.72-4.94,9.75-6.7,15.02c-2.03,6.1-3.39,13.04-0.31,20.08
		c1.76,4.01,4.79,7.64,8.22,10.93c1.22,1.17,2.49,2.29,3.77,3.38c6.96,5.89,14.53,10.99,21.98,16.22
		c5.73,4.02,11.43,8.14,17.49,11.52C1245.03,1766.88,1245.66,1767.19,1246.14,1767.04z"/>
	<path class="st1" d="M346.71,826.49c5.04,3.34,56.6-16.26,58.85-18.09c4.07-3.31,28.98-65.08,21.82-72.44
		c-10.3-10.59-32.52-16.9-47.07-17.59c-0.48-0.02-0.89-0.01-1.22,0.03c-10.82,1.48-74.4,46.08-74.85,53.27
		C304.13,773.43,340.94,822.66,346.71,826.49z"/>
	<path class="st1" d="M1008.4,340.43c-1.87,6.07-1.48,33.82,3.22,38.83c7.76,8.28,55.07-27.73,61.99-40.18
		c1.04-1.77,7.07-21.05,2.24-24.46c-3.47-2.45-39.57,4.97-50.23,9.55C1018,327.46,1010.91,332.3,1008.4,340.43z"/>
	<path class="st1" d="M742.39,207.17c-4.58-1.83,3.71,84.03,6.79,85.85l59.39-13.98c-2.3-10.26-5.38-20.45-8.41-30.62
		C799.67,246.77,762.61,215.23,742.39,207.17z"/>
	<path class="st1" d="M197.99,1191.68c12.75,12.75,56.71,51.4,63.99,55.92c1.91,1.19,23.58,5.78,31.47,7.32
		c1.73,0.34,13.63-7.5,13.69-8.05c1.59-13.99-62.4-95.11-106.07-97.94C199.69,1148.84,196.69,1190.38,197.99,1191.68z"/>
	<path class="st1" d="M845.88,1169.57c1.82-15.05-37.14-77.9-54.59-84.77c-1.63-0.64-18.56,6.57-22.63,12.6
		c-0.81,1.2-6,20.39-6.12,22.37c-0.94,15.99,34.83,47.05,41.46,51.72c1.74,1.23,21.71,5.62,28.98,7.07
		C834.59,1178.87,845.81,1170.16,845.88,1169.57z"/>
	<path class="st1" d="M1867.9,535.88c3.01-0.87,20.58-19.21,23.69-24.64c7-12.21,14.72-24.05,21.65-36.27
		c3.76-6.62-30.52-33.98-34.76-29.52c0,0-50.71,53.49-50.71,53.49C1825.72,501.11,1861.44,537.74,1867.9,535.88z"/>
	<path class="st1" d="M1313.89,855.9c16.06-5.28,80.83-66.96,77.99-72.44c-9.58-18.48-22.82-33.93-38.5-47.12
		c-4.96-4.17-93.2,59.21-89.97,65.18C1267.23,808.55,1300.64,844.17,1313.89,855.9z"/>
	<path class="st1" d="M1587.49,960.33c-3.85-26.15-47.21-96.88-57.86-112.45c-3.82,1.31-43.28,36.73-45.41,40.8
		c-8.43,16.16,56.63,66.35,62.49,70.16C1559.37,967.08,1572.68,968.98,1587.49,960.33z"/>
	<path class="st1" d="M1032.88,165.95c4.06-0.14,8.11-0.48,12.01-1.24c2.44-0.48,5.79-3.06,0.72-10.86
		c-1.33-2.05-2.91-3.87-4.63-5.47c-15.11-14.17-51.06-30.1-55.11-28.14c-6.65,5.85-22.05,20.45-24.72,24.03
		c-0.18,0.23,3.83,13.76,4.02,13.84C972.46,161.3,1022.27,166.32,1032.88,165.95z"/>
	<path class="st1" d="M422.47,71.94c5.85,2.92,32.72-3.63,37.95-4.94c7.84-1.97,69.47-29.74,95.97-54.57
		c3.69-3.46,4.5-8.03,2.93-12.42h-93.06c-12.41,16.65-24.63,33.03-37.02,50.76C429.46,50.97,422.47,71.94,422.47,71.94z"/>
	<path class="st1" d="M770.15,1341.16c-7.83-7.46-16.04-14.37-25.84-23.06c-2.35,0.43-6.63,1.08-6.98,1.41
		c-16.88,12.15-32.63,22.83-49.27,35.33c0.08,0.17-8.08,11.19-8.08,11.19c2.89,2.85,20,4.17,23.34,4.41
		c5,0.35,46.72-4.15,67.15-13.68C776.13,1354.1,775.9,1346.64,770.15,1341.16z"/>
	<path class="st1" d="M1161.89,63.55c5.85,4.72,27.77,20.45,32.66,23.09c3.42,1.85,18.24,3.31,19.79,2.21
		c5.89-4.14,9.91-9.91,12.82-16.31c3.75-8.26,4.39-18.3-6.74-31.14c-7.21-8.32-19.54-13.2-28.23-15.1
		c-12.76-2.79-23.44-0.87-29.98,4.45c-4.42,3.59-7.01,8.73-7.87,14.74C1154.05,47.45,1157.59,60.08,1161.89,63.55z"/>
	<path class="st1" d="M686.18,1586.15c-0.92-3.63-5.58-6.31-8.58-4.63c-5.36,3-36.32,22.08-52.07,29.93
		c-15.78,7.87,34.5,55.35,48.68,62.76c9.24,4.82,19.84,0.06,22.27-9.44c1.27-4.97,1.5-10.57,0.93-15.89
		C696.69,1642.3,687.23,1590.27,686.18,1586.15z"/>
	<path class="st1" d="M1534.54,18.06c-0.07,0.54,0.09,1.09,0.24,1.61c3.17,10.7,7.97,20.8,12.75,30.86
		c5.41,11.37,10.83,22.78,17.55,33.4c2.24,3.54,4.77,7.12,8.43,9.05c6.96,3.67,11.85-1.85,15.98-6.86c5-6.06,9.51-12.54,13.53-19.33
		c4.65-7.86,8.76-16.81,7.45-25.96c-0.75-5.21-3.2-9.95-6.26-14.25c-1.09-1.53-2.25-3-3.44-4.42c-6.48-7.72-13.98-14.43-21.3-21.3
		c-0.3-0.28-0.6-0.56-0.9-0.84h-30.41c-4.21,5.39-8.42,10.78-12.63,16.18C1535.08,16.74,1534.62,17.34,1534.54,18.06z"/>
	<path class="st1" d="M505.83,584.64c8.14,1.42,51.2-29.71,49.18-35.1c-8.89-23.75-44.24-64.11-46.1-64.41
		c-11.51-1.87-23.03-3.8-34.66-4.73c-2.41-0.19-5.57,3.44-7.77,5.87c-1.27,1.4-1.83,3.93-1.84,5.94
		c-0.07,21.65-1.6,43.62,9.69,63.14C476.36,558.85,498.78,578.06,505.83,584.64z"/>
	<path class="st1" d="M118.02,851.52c0.59,1.91,1.88,4.18,3.5,5.14c2.82,1.68,6.9,4.23,9.15,3.34c10.84-4.29,21.29-9.52,31.75-14.68
		c1.7-0.84,23.67-49.78,25.21-75.09c0.35-5.74-49.94-22.89-57.31-19.15c-4.81,8.35-20.62,33.29-21.53,37.23
		C103.72,810.28,111.61,830.84,118.02,851.52z"/>
	<path class="st1" d="M189.59,1469.65c-1.93,1.98-3.65,4.31-5.24,6.76c-4.29,6.57-20.42,42.42-20.4,47.64
		c0.02,4.34,3.21,9.01,6.64,10.46c1.72,0.73,19.06,0.17,25.57-0.44c1.17-6.68,2.11-34.23,2.11-51.94c0-0.86-0.89-4.16-1.67-6.26
		C193.65,1467.91,190.8,1468.42,189.59,1469.65z"/>
	<path class="st1" d="M468.74,1096.99c4.56,0.68,37.07-34.48,40.64-53.4c0.53-2.84-26.78-64.46-33.76-71.34
		c-15.36,27.92-37.69,100.8-35.39,104C445.18,1083.13,461.86,1095.96,468.74,1096.99z"/>
	<path class="st1" d="M78.55,44.01c0.32,1.35,61.51,1.8,64.18,0.37c3.09-1.66-4.36-24.51-12.08-44.38H76.71
		C76.48,17.69,77.06,37.87,78.55,44.01z"/>
	<path class="st1" d="M800.27,2000h62.19c-17.45-13.58-49.53-35.6-67.67-43.77C793.78,1961.15,797,1982.49,800.27,2000z"/>
	<path class="st1" d="M548.11,1988.71c-15.72-7.5-31.75-13.97-51.11-22.38c-3.38,1.83-9.6,4.97-9.99,5.65
		c-7.02,9.61-13.91,18.86-20.74,28.03h93.06C557.77,1995.64,553.86,1991.45,548.11,1988.71z"/>
	<path class="st1" d="M1560.16,1985.07c-0.45,0.13-0.77,0.53-1.06,0.9c-3.65,4.68-7.3,9.35-10.95,14.03h30.41
		c-5.32-5.01-10.62-10.08-16.55-14.31C1561.46,1985.29,1560.81,1984.88,1560.16,1985.07z"/>
	<path class="st1" d="M117.04,1970.45c-7.01-3.83-34.09-2.15-37.91-0.07c-1.39,0.75-2.21,14.25-2.41,29.62h53.93
		C124.74,1984.8,118.67,1971.34,117.04,1970.45z"/>
	<path class="st1" d="M1411.76,1875.73c-12.94,4.92-25.58,10.86-39.17,16.74c-0.88,0.38,19.32,61.18,21.3,61.64
		c6.09,1.42,60.33-49.32,61.84-52.18c1-1.91,7.93-22.8,7.22-22.95C1457.83,1877.95,1417.49,1873.55,1411.76,1875.73z"/>
	<path class="st1" d="M1273.82,1860c-3.32-3.65-6.91-7.03-10.74-10.07c-3.17-2.51-6.87-5.23-10.69-1.83
		c-2.01,1.79-3.11,4.44-4.05,7.03c-2.8,7.75-4.71,15.79-6.61,23.81c-1.68,7.09-3.37,14.21-3.98,21.45
		c-0.03,0.35-0.06,0.72,0.05,1.05c0.14,0.44,0.5,0.75,0.84,1.03c6.1,5.12,12.19,10.24,18.29,15.35c0.23,0.19,0.47,0.39,0.76,0.4
		c0.42,0.02,0.77-0.34,1.07-0.68c3.29-3.8,6.03-8.08,8.83-12.29c3.64-5.48,7.42-10.89,10.44-16.77c0.56-1.08,1.09-2.19,1.56-3.33
		c1.34-3.19,2.26-6.56,2.06-9.97C1281.32,1869.23,1277.67,1864.22,1273.82,1860z"/>
	<path class="st1" d="M1023.24,1581.89c-7.55-0.72-63.97,61.04-67.22,72.58c-0.1,0.35-0.17,0.8-0.23,1.33
		c-1.58,15.97,1.48,41.25,10.86,54.26c6.52,9.05,74.7-7.69,78.78-11.56c2.26-2.14,30.78-55.03,28.1-61.08
		C1070.47,1630.49,1025.08,1582.07,1023.24,1581.89z"/>
	<path class="st1" d="M1875.51,130.67c6.45,8.47,13.67,16.69,23.05,21.99c7.45,4.21,18.66,5.58,23.48-1.46
		c3.06-4.47,18.48-14.89,17.03-20.04c-6.73-23.85-37.03-40.53-50.74-61.31c-3.47-5.26-7.37-10.86-13.44-12.95
		c-9.98-3.42-15.03,2.58-17.28,11.27c-2.89,11.19-1.12,26.84,0.82,32.57C1862.11,111.65,1868.51,121.47,1875.51,130.67z"/>
	<path class="st1" d="M1593.78,791.2c-0.59-0.21,26.35,0.11,40.02,3.27c0,0,22.81-12.96,25.56-15.13
		c-0.57-3.16-20.91-42.4-38.56-43.08c-5.87-0.23-40.45,21.18-43.8,24.4C1573.84,763.7,1586.33,782.58,1593.78,791.2z"/>
	<path class="st1" d="M1049.82,1204.32c0.2,1.68,0.02,3.75,0.75,5.47c1.73,4.08,3.66,8.13,5.93,11.95
		c4.35,7.3,8.44,14.85,13.65,21.55c9.14,11.74,22.89,13.95,34.8,5.81c3.88-2.65,7.01-6.6,9.81-10.42c2.42-3.3,2.64-7.37,1.71-11.54
		c-2.3-10.31-8.08-18.42-16.38-24.92c-4.42-3.46-9.57-4.24-15.13-3.51c-7.67,1.01-15.38,1.81-23.1,2.44
		C1057.81,1201.5,1053.67,1201.21,1049.82,1204.32z"/>
	<path class="st1" d="M112.99,381.08c2.06-4.94-1.19-54.58-13.4-70.54c-1.91-2.5-4.7-4.29-7.91-7.15
		c-6.7,6.21-13.04,11.29-18.44,17.27c-9.05,10-13.7,22.34-14.52,35.81c-0.33,5.34,11.6,32.81,16.43,41.46
		c5.83,1.85,12.17,3.87,19.76,6.28C101.74,395.43,106.49,389.93,112.99,381.08z"/>
	<path class="st1" d="M191.58,615.49c4.07,3.65,30.82-3.45,33.45-4.06c11.03-2.56,21.93-5.65,32.93-8.34
		c-13.03-12.14-23.88-27.57-38.51-37.31c-5.05-3.36-16.87,3.17-25.51,5.56c-8.46,2.34-16.79,5.13-28.28,8.68
		C174.35,592.55,181.1,606.11,191.58,615.49z"/>
	<path class="st1" d="M1617.04,612.24c41.44-9.59,82.89-19.18,124.33-28.77c-21.47-26.51-43.52-53.54-72.6-71.37
		c-4.67-2.86-11.51-5.96-16.67-2.42c-4.51,3.09-7.25,10.27-9.66,15.01c-12.28,24.16-24.32,48.44-36.36,72.72
		C1605.61,598.35,1616.18,612.44,1617.04,612.24z"/>
	<path class="st1" d="M948.43,1008.16c3.4,2.26,39.09-8.36,49.64-13.98c7.55-4.03,14.6-9.63,17.14-18.27
		c1.9-6.45,1.77-35.23-2.82-40.05c-7.58-7.96-54.58,33.24-61.52,46.73C949.82,984.5,943.69,1005,948.43,1008.16z"/>
	<path class="st1" d="M1243.58,1444.17c1.36-4.91-7.54-23.59-10.73-27.02c-4.28-4.6-10.43-5.48-16.4-5.14
		c-8.34,0.48-33.93,7.51-35.35,10.3c-1.97,3.89,8.25,14.77,9.5,15.6C1199.14,1443.92,1241.34,1452.28,1243.58,1444.17z"/>
	<path class="st1" d="M59.82,1704.5c4.62-2.5,7.85-6.93,10.47-11.5c5.28-9.24,8.66-19.77,8.59-30.56c-0.02-2.37-0.21-4.65-0.56-6.83
		c-2.17-13.63-11.05-24.48-20.97-33.63c-11.72-10.81-24.05-20.93-36.91-30.32c-5.21-3.81-10.49-7.53-15.87-11.1
		c-1.48-0.98-3.01-2.07-4.58-3.13v104.9c8.88,8.53,19.99,14.83,31.32,19.73C40.47,1706,51.25,1709.14,59.82,1704.5z"/>
	<path class="st1" d="M1903.05,1845.97c-34.8-2.32-51.97,27.96-51.97,27.96l86.07,61.84l22.79-39.64l-2.3-7.43
		c-7.36-23.84-28.74-40.85-53.78-42.67C1903.6,1846.01,1903.32,1845.99,1903.05,1845.97z"/>
	<path class="st1" d="M438.62,1731.27c-12.98-2.37-25.97-4.81-39.1-6.13c-2.73-0.27-6.37,3.77-8.93,6.47
		c-1.46,1.55-2.16,4.41-2.21,6.68c-0.56,24.49-2.78,49.31,9.56,71.65c2.21,4.01,27.15,26.24,34.97,33.84
		c9.18,1.79,58.58-32.47,56.42-38.61C479.81,1778.1,440.73,1731.65,438.62,1731.27z"/>
	<path class="st1" d="M769.68,1754.42c-1.43-0.9-4.53,0.39-6.66,1.22c-1.22,0.48-2.37,1.91-3,3.18
		c-6.85,13.74-14.7,27.22-13.84,43.29c0.15,2.88,8.01,22.35,10.31,28.81c4.6,3.54,41.07-2.34,41.51-6.42
		c1.96-17.98-7.27-55.07-8.33-55.87C783.12,1763.72,776.59,1758.77,769.68,1754.42z"/>
	<path class="st1" d="M492.86,1287.86c-1.26,0.06-9.88,9.67-10.56,14.76c-0.14,1.01,2.72,14.93,3.28,16.24
		c4.57,10.61,37.76,20.21,43.56,21.28c1.52,0.28,15.86-2.72,21.03-3.91c1.14-0.26,5.58-9.17,5.43-9.57
		C551.91,1316.41,506.37,1287.2,492.86,1287.86z"/>
	<path class="st1" d="M1009.38,1870.56c-7.57-10.14-15.17-20.31-23.81-29.75c-2.88-3.15-6.05-6.33-9.91-8.01
		c-7.36-3.2-10.75,1.82-13.55,6.38c-3.38,5.51-6.22,11.39-8.52,17.55c-2.66,7.12-4.58,15.22-1.35,23.42c1.84,4.67,5.18,8.89,9,12.71
		c1.36,1.36,2.77,2.66,4.21,3.92c7.78,6.84,16.32,12.77,24.71,18.84c6.45,4.67,12.87,9.45,19.73,13.37c0.61,0.35,1.32,0.7,1.88,0.52
		c0.39-0.13,0.61-0.48,0.8-0.82c5.21-9.15,10.41-18.3,15.62-27.45c0.29-0.51,0.59-1.06,0.51-1.7c-0.06-0.49-0.32-0.97-0.58-1.44
		C1022.8,1888.53,1016.07,1879.52,1009.38,1870.56z"/>
	<path class="st1" d="M645.21,1861.43c1.08-1.75,7.49-20.9,2.72-24.41c-3.42-2.52-39.66,4.19-50.4,8.56
		c-7.69,3.13-14.88,7.84-17.54,15.91c-1.99,6.03-2.15,33.78,2.46,38.89C590.04,1908.81,638.05,1873.74,645.21,1861.43z"/>
	<path class="st1" d="M224.28,1832.11c-4.55-1.92,2.05,84.09,5.09,85.97l59.66-12.81c-2.09-10.3-4.98-20.55-7.81-30.78
		C280.76,1872.83,244.34,1840.56,224.28,1832.11z"/>
	<path class="st1" d="M1382.37,1509.77c-3.65,3.3-23,34.06-29.51,46.44c1.54,16.38,27.27,85.36,30.09,82.92
		c9.55-8.23,17.86-20.33,25.24-35.01C1410.52,1599.48,1385.46,1506.98,1382.37,1509.77z"/>
	<path class="st1" d="M835.08,1470.75c-4.56,3.85-15.13,13.49-16.98,15.86c-0.12,0.16,2.4,9.32,2.52,9.38
		c4.87,2.25,38.37,6.29,45.52,6.18c2.73-0.04,5.47-0.21,8.11-0.68c1.65-0.29,3.94-1.98,0.63-7.31c-0.87-1.4-1.91-2.64-3.04-3.75
		C861.85,1480.69,837.84,1469.48,835.08,1470.75z"/>
	<path class="st1" d="M54.88,1249.04c-15.57-7.81-31.47-14.59-50.66-23.39c-1.18,0.61-2.71,1.38-4.22,2.14v83.32
		c21.46-10.28,47.59-24.59,62.7-38.19C70.19,1266.17,66.33,1254.78,54.88,1249.04z"/>
	<path class="st1" d="M1931.35,596.79c-3.83,0.65-7.14,2.76-9.92,7.07c-3.54,5.49-5.98,13.52-3.83,19.79
		c3.53,10.3,50.6,57.67,56.43,56.53c1.6-0.31,14.95-13.78,25.97-26.62v-30.73C1978.53,612.2,1940.29,595.26,1931.35,596.79z"/>
	<path class="st1" d="M1971.43,867.46c-0.57,0.06-9.3,10.56-9.04,12.07c1.2,6.88,4.87,25.77,6.01,27.43
		c2.82,4.13,18.29,19.03,31.61,29.38v-58.22C1987.71,871.38,1976.67,866.9,1971.43,867.46z"/>
	<path class="st1" d="M1975.35,1591.12c-0.34,13.21,1.23,26.98,2.75,40.12c1.64,14.18,4.97,28.61,12.99,40.57
		c2.58,3.85,5.59,7.33,8.9,10.51v-104.9c-3.35-2.28-6.9-4.47-10.6-5.43C1977.68,1568.95,1975.57,1582.52,1975.35,1591.12z"/>
	<path class="st1" d="M1994.13,1231.1c-20.29,26.66-39.55,50.53-59.3,77.63c0.21,0.22-7.19,21.04-7.19,21.04
		c5.79,3.04,32.79-2.98,38.04-4.19c3.47-0.8,17.46-6.39,34.33-14.48v-83.32C1997.16,1229.23,1994.38,1230.67,1994.13,1231.1z"/>
	<path class="st1" d="M682.24,959.94c5.75,4.84,27.37,20.99,32.2,23.73c3.38,1.92,18.17,3.67,19.74,2.6
		c5.97-4.03,10.1-9.71,13.14-16.05c3.92-8.18,4.75-18.21-6.12-31.27c-7.05-8.46-19.28-13.59-27.92-15.65
		c-12.71-3.04-23.41-1.33-30.07,3.86c-4.49,3.5-7.18,8.59-8.16,14.58C674.72,943.7,678.01,956.39,682.24,959.94z"/>
	<path class="st1" d="M442.95,1491.59c2.02-6.41,2.47-35.18-2.03-40.1c-7.42-8.11-55.23,32.16-62.43,45.5
		c-1.08,1.9-7.61,22.27-2.94,25.52c3.35,2.33,39.24-7.59,49.91-13C433.08,1505.64,440.24,1500.17,442.95,1491.59z"/>
</g>
</svg>
